<svg xmlns="http://www.w3.org/2000/svg" viewBox="0 0 287.98 107.54"><defs><style>.cls-1{fill:#fff;}</style></defs><title>資產 2</title><g id="圖層_2" data-name="圖層 2"><g id="圖層_1-2" data-name="圖層 1"><path class="cls-1" d="M253.5,40.33q9.11-9.07,18.2-18.16c4.23-4.24,8.37-8.58,12.65-12.77.86-.84,1.88-3,3.13-1.77,1.55,1.57-.9,2.46-1.77,3.36q-15.16,15.56-30.52,30.92a7.91,7.91,0,0,0-2.55,6.27c.11,6.87.07,13.74,0,20.61,0,1.12.66,3.07-.93,3.13s-1.08-1.91-1.09-3c-.07-7,0-14,0-20.9-1.46-.42-1.94.64-2.58,1.29-4.24,4.23-8.4,8.55-12.7,12.71-2.09,2-3.44,4.15-3,7.21.13,1,.62,2.64-.93,2.77-1.72.15-1.06-1.56-1.29-2.54a5.78,5.78,0,0,0-.43-1c-1.92.78-2.81,2.55-4.22,3.73-.56.47-1.1,1.18-1.89.47s-.4-1.32.16-1.92c.17-.18.35-.35.52-.54,6.65-7.53,6.73-7.82,5.63-18.85-1.85.17-2.75,1.68-3.64,2.85-3.06,4-6.89,5.49-12,5.14-6.2-.43-6.22-.11-6.27,6.1,0,1.5,0,3-.07,4.49,0,.81.19,2-1,2.1s-1-1.21-1-2c-.08-1,0-2,0-3,0-7.8,0-7.8-7.65-7.81-1.12,0-2.25,0-3.37,0-.74-.05-1.57-.17-1.46-1.22.09-.81.82-.89,1.42-.91a62.48,62.48,0,0,1,7.11,0c3.22.29,4.31-1.11,4-4.11a14.59,14.59,0,0,1,0-1.87c0-5.49,0-5.59-5.47-5.82-2.17-.09-2.78-1-2.72-3,.12-4,.2-8,0-12-.15-2.88.72-4.27,3.72-3.73,3.7.66,4.66-1,4.55-4.51-.28-9,.59-7.06-7.44-7.39-1.72-.07-4.91.94-4.87-.88,0-2.69,3.17-1.23,4.88-1.27,7.36-.2,7.29-.1,7.43-7.33,0-1.82-1-5.14,1-5.14s1,3.29,1,5.1c.12,7.25,0,7.17,7.43,7.34,1.69,0,4.89-1,4.84.94-.07,2.57-3.21,1.18-4.95,1.22-7.31.16-7.15.06-7.31,7.35-.08,3.32.45,5.32,4.34,4.57,3.41-.66,4.19,1.35,3.77,4.09-.61,3.9,1,4.93,4.74,4.83,9-.26,18,0,27-.17C251.2,35.2,253.62,35.67,253.5,40.33Zm-31.16-2.84h-.45c-5.39-.12-5.47-.13-5.84,5.09-.14,1.94-1,2.7-2.79,2.62a10.68,10.68,0,0,0-3,0C205.4,46.5,208.84,50.38,208,53c-.47,1.53-1,3.87,2.2,4,6,.29,11.8.48,15.46-5.58a12.85,12.85,0,0,1,2.13-2.1c2-2,3.43-8.07,2.06-10.4s-4.09-.77-6.13-1.3C223.64,37.57,223.51,37.58,222.34,37.49Zm10,24c6.2-6.08,11.85-11.5,17.34-17.08,1.52-1.55,1.22-3.83.62-5.71s-2.53-1-3.92-1.19a7,7,0,0,0-6.54,2.74c-1.83,2.2-4,4.12-6,6.15a4,4,0,0,0-1.5,2.88C232.33,53.12,232.32,57,232.32,61.49ZM199.91,35.62c0,7.37,0,7.37,7.53,7.38,1,0,2,0,3,0,1.78,0,3.53.24,3.51-2.5s-1.44-3-3.59-3.07c-1.64-.09-4.53,1.07-4.62-1.19,0-1.61,3-.8,4.55-.8,2.71,0,3.67-1,3.74-3.74.07-3.15-1.76-3-3.86-3-1.12,0-2.24,0-3.36,0C199.91,28.76,199.91,28.76,199.91,35.62Zm32.61,7.63L238.58,38C232.4,36.76,232.06,37.07,232.52,43.25Z"/><path class="cls-1" d="M88.2,21.81c2.93-3,5.83-6.13,8.8-9.13.6-.61,1.26-2,2.36-.88s-.32,1.77-.93,2.41c-2.86,3-5.69,6-8.69,8.79a7.81,7.81,0,0,0-2.64,6.24c.09,24.11.05,48.22.05,72.32,0,1.25-.12,2.5-.09,3.75,0,1.6-.76,2.22-2.29,2.21-7.62,0-15.24,0-22.86,0-2.91,0-2.31-2.07-2.32-3.67-.05-15.12,0-30.23-.07-45.35,0-1.18.48-2.48-1.16-4.36-3.34,3.61-6.53,7.22-9.88,10.65C37.75,75.78,27,86.69,16.19,97.62a1.64,1.64,0,0,1-.27.26c-.86.52-1.38,2.35-2.65,1.19s.36-1.94,1-2.62c6-6.17,12.08-12.27,18.12-18.4C40.64,69.68,48.8,61.26,57.12,53a8.11,8.11,0,0,0,2.48-6.33q-.14-17.61-.05-35.22c0-1.33-.75-3.76,1.06-3.77,2,0,1.06,2.39,1.07,3.69.09,10.62,0,21.24.07,31.86,0,1.19-.6,3,.53,3.47,1.51.7,2.21-1.22,3.11-2.11C71.14,38.86,76.75,33,82.54,27.31A7.68,7.68,0,0,0,85,21c-.17-3.62-.07-7.25,0-10.87,0-1-.56-2.72,1.09-2.65s.9,1.81.93,2.78c.11,3.69,0,7.39,0,11.09ZM85,62c-.91.37-1.33.41-1.56.65Q73.17,73,62.92,83.4a4.13,4.13,0,0,0-1.17,3.06c0,5.62,0,11.23,0,16.85,0,1.43.43,2,1.91,2,6.36,0,12.73-.06,19.1,0,1.83,0,2.32-.76,2.32-2.47C85,89.41,85,76,85,62ZM61.73,80.4c.81-.3,1.22-.33,1.45-.56Q73.44,69.51,83.67,59.13a3.71,3.71,0,0,0,1.26-2.63c0-9.15,0-18.31,0-27.66-.72.25-1.15.27-1.37.5-6.84,6.9-13.64,13.84-20.48,20.74a4.93,4.93,0,0,0-1.38,3.73C61.74,62.52,61.73,71.23,61.73,80.4Z"/><path class="cls-1" d="M127.19,51.77,108.51,70.21c-.54.53-1,1.09-1.57,1.62s-1.09,1.24-1.87.59c-1-.81-.28-1.57.34-2.2,2.44-2.51,4.86-5,7.36-7.47,4-3.9,8.07-7.73,12.11-11.59-.2-.36-.4-.73-.59-1.1H113.05l-.46-.91,12.32-12.63c-4.34-1.21-8.25.06-12.09-.86l16.5-16V45c2.3-.87,3.22-2.4,4.4-3.59Q149.79,25.22,165.86,9c.78-.79,1.67-2.6,2.93-1.36s-.59,2.17-1.34,2.91c-6.34,6.19-12.75,12.29-18.92,18.21.95,2.15,2.11,1.59,3,1.6,6.75.05,13.5.09,20.25,0,2.43,0,3.55.52,3.52,3.3-.13,12-.1,24,0,36,0,2.47-.77,3.26-3.2,3.23-8.24-.11-16.49-.09-24.74,0-2.25,0-3.18-.74-3.05-3s0-4.75.05-7.12c0-.88-.39-2.38,1.1-2.28,1.32.08.94,1.51,1,2.44a6.26,6.26,0,0,1,0,.75c.15,7,.15,7,7.28,7,5.25,0,10.5-.08,15.74.05,2.48.07,3.56-.56,3.53-3.31-.14-10.49-.11-21,0-31.49,0-2.48-.88-3.28-3.27-3.25q-11.06.12-22.11,0a4.91,4.91,0,0,0-3.85,1.84c-4.17,4.31-8.34,8.62-12.66,12.78a5.8,5.8,0,0,0-1.84,4.61c0,5.87,0,11.74,0,17.62,0,1,.52,2.71-1.14,2.64s-.93-1.77-.95-2.75C127.15,63.73,127.19,58.14,127.19,51.77Zm-9.57-18.22c3.48.08,7.2,1.39,9-.56s.88-5.52.08-8.92C123.47,27.24,120.36,29.78,117.62,33.55Zm9.45,4.81c-3.44,2.35-7.34,6.42-8.68,8.9,8.56,1.64,8.91,1.36,8.78-7C127.16,39.75,127.12,39.26,127.07,38.36Z"/><path class="cls-1" d="M0,24.84Q8.27,17,16.54,9.19c.5-.47,1-1.47,1.75-.84a2.94,2.94,0,0,1,.58,2c0,3.62.05,7.24-.1,10.85-.09,2.29.8,3.09,3.07,3,3.11-.15,6.24,0,9.36,0,.69,0,1.68-.15,1.76.88.11,1.26-.94,1.27-1.81,1.28-2.87,0-5.76.2-8.61,0-3.07-.25-3.89,1.08-3.77,3.9.17,4.12.16,8.24,0,12.36-.11,2.74.85,3.75,3.66,3.63,6.09-.25,5.09-.06,5.12,5.26,0,6.49-.1,13,.07,19.47.06,2.4-.57,3.4-3.08,3.32-4.48-.14-9-.15-13.47,0-2.4.07-3.24-.68-3.19-3.19q.26-10.66,0-21.34c-.07-2.87,1-3.62,3.68-3.58,5.13.08,5.14-.07,5.13-5.37,0-3.62-.15-7.25.06-10.86.16-2.88-1-3.68-3.71-3.57-4.06.17-8.13.05-12.2.05ZM25.35,60.33c0-3-.1-6,0-9,.1-2.23-.63-3.16-3-3-3.12.16-6.25.13-9.37,0-2-.09-3,.45-2.93,2.67.1,6.12.07,12.25,0,18.37,0,1.81.43,2.79,2.51,2.7,3.37-.15,6.75-.13,10.12-.07,1.92,0,2.69-.7,2.62-2.64C25.27,66.33,25.35,63.33,25.35,60.33ZM6.08,23.9c2.93.6,6.08.2,9.19.25a1.31,1.31,0,0,0,1.37-1.44c0-3,0-6.08,0-9.43Z"/><path class="cls-1" d="M253.45,28.56H220.18l16.26-16.34c.85-.85,1.48-.41,2.2.27q7.86,7.44,15.77,14.83ZM225.66,25.2l.81,1h21.84l.7-1.1c-3.31-3-6.7-5.9-9.9-9-1.26-1.24-2.1-1.37-3.37-.17C232.41,19,229,22.1,225.66,25.2Z"/><path class="cls-1" d="M125.71,94c1.33-1.1.18-3,2-4,.71,2.48-.39,4.65-.77,6.78-.25,1.37-1.48,1.23-2.05,0a18.91,18.91,0,0,1-.91-3.23c-.22.19-.41.32-.56.48-1,1,.09,3.71-1.93,3.48-1.81-.21-1.37-2.61-1.74-4.09a24.65,24.65,0,0,1-.29-3.78c2.06,1.42,1.26,3.47,2.12,4.8,1.49-1.1.3-4.07,2.12-4.25S124.53,92.74,125.71,94Z"/><path class="cls-1" d="M235.51,98c-1.72-1.43-.28-3.58-2.54-3.73-2.64-.18-.79,2.87-2.74,3.45-1.06-2.61-.36-5.15-.37-7.83,2.2.15.72,3.49,3.34,2.87,1.65-.39.73-2,2-2.76C236.37,92.62,235.78,95.06,235.51,98Z"/><path class="cls-1" d="M218.94,93.54c-.1,2.57-.85,4.35-3.44,4.31s-3.44-1.85-3.44-4c0-2.35,1-4.31,3.69-4.18C218.23,89.76,219,91.62,218.94,93.54Zm-1.57.12c-.16-1.22-.1-2.73-1.92-2.57-1.64.15-1.71,1.63-1.8,2.85-.1,1.37.48,2.64,2,2.57S217.32,95,217.37,93.66Z"/><path class="cls-1" d="M162.49,51.74c.38,2.25-.85,2.62-2.81,2.67-2.22.06-2.69-.91-2.73-2.88,0-2.2,1-2.73,2.92-2.74C162,48.77,162.83,49.66,162.49,51.74Z"/><path class="cls-1" d="M158.48,93.48c-.63,1.08-2.55.33-2.44,1.94s2.29.52,3,2.08c-1.71.35-3.74,1-4.43-.45a8.37,8.37,0,0,1,0-6.55c.63-1.46,2.53-1,4-.39-.25,1.62-2.76.28-2.56,2C156.19,93.17,157.75,92.85,158.48,93.48Z"/><path class="cls-1" d="M143.19,97.7c-1.74-.09-3.86,1-4.46-.86a8.5,8.5,0,0,1,.22-6.51c.65-1.18,2.38-.76,3.7-.25-.07,1.64-2.3.41-2.25,1.91s1.9.32,2.22,1.49c-.27,1.25-2.4.23-2.35,1.83C140.32,97.12,142.57,95.82,143.19,97.7Z"/><path class="cls-1" d="M248.68,93.63c-.87,1.14.3,2.78-1,3.73a1,1,0,0,1-.68-1.21c.25-2-1.08-5,.78-5.84,1.7-.77,1.69,2.81,3.46,3.84.4-1.33-.37-2.83,1.19-4.16a22.65,22.65,0,0,1,.08,7.74C250,97.2,250.32,94.56,248.68,93.63Z"/><path class="cls-1" d="M108.47,90.43c-.69,1.1-2.08,0-2.69,1.23.61,1.9,5.09,1.94,3,5.16-1.06,1.63-2.92,1.39-4.51.24.4-1,1-.72,1.6-.58s1.36.21,1.57-.51c.37-1.25-.9-1.29-1.55-1.69-1.4-.86-2.64-1.93-1.5-3.54C105.39,89.3,107,89,108.47,90.43Z"/><path class="cls-1" d="M168.73,90.19a12,12,0,0,1,6.69,0c-3.91,1.55-1.54,5.15-3.09,7.93C170.32,95.52,173,91.81,168.73,90.19Z"/><path class="cls-1" d="M196.48,96.83c5.78-.49,2-5,4.36-7.11,1,2.59,1.2,5,0,7.27C200,98.42,198.57,98.08,196.48,96.83Z"/></g></g></svg>